<svg xmlns="http://www.w3.org/2000/svg" xmlns:xlink="http://www.w3.org/1999/xlink" version="1.1" width="256" height="256" viewBox="0 0 256 256" xml:space="preserve">

<defs>
</defs>
<g style="stroke: none; stroke-width: 0; stroke-dasharray: none; stroke-linecap: butt; stroke-linejoin: miter; stroke-miterlimit: 10; fill: none; fill-rule: nonzero; opacity: 1;" transform="translate(1.4065934065934016 1.4065934065934016) scale(2.81 2.81)" >
	<path d="M 72.692 28.948 c -0.188 -2.03 -1.867 -3.562 -3.906 -3.562 h -6.481 v -8.082 C 62.305 7.763 54.542 0 45 0 S 27.695 7.763 27.695 17.305 v 8.082 h -6.482 c -2.039 0 -3.718 1.531 -3.905 3.562 L 12.08 85.719 c -0.101 1.096 0.266 2.189 1.007 3.002 C 13.829 89.534 14.884 90 15.984 90 h 58.031 c 1.1 0 2.155 -0.466 2.896 -1.278 s 1.109 -1.907 1.009 -3.003 L 72.692 28.948 z M 29.695 17.305 C 29.695 8.866 36.561 2 45 2 c 8.439 0 15.305 6.866 15.305 15.305 v 8.082 H 29.695 V 17.305 z M 75.435 87.374 C 75.066 87.777 74.563 88 74.016 88 H 15.984 c -0.547 0 -1.051 -0.223 -1.419 -0.627 c -0.369 -0.403 -0.544 -0.926 -0.494 -1.471 L 19.3 29.131 c 0.092 -0.995 0.915 -1.745 1.914 -1.745 h 6.482 v 4.741 c -1.83 0.451 -3.195 2.094 -3.195 4.062 c 0 2.313 1.882 4.195 4.195 4.195 c 2.313 0 4.195 -1.882 4.195 -4.195 c 0 -1.967 -1.366 -3.61 -3.195 -4.061 v -4.741 h 30.609 v 4.741 c -1.83 0.451 -3.195 2.094 -3.195 4.062 c 0 2.313 1.882 4.195 4.195 4.195 s 4.195 -1.882 4.195 -4.195 c 0 -1.967 -1.366 -3.61 -3.195 -4.062 v -4.741 h 6.481 c 1 0 1.822 0.75 1.914 1.745 l 5.229 56.771 C 75.979 86.446 75.804 86.97 75.435 87.374 z M 28.695 33.993 c 1.21 0 2.195 0.985 2.195 2.195 s -0.984 2.195 -2.195 2.195 S 26.5 37.399 26.5 36.188 S 27.485 33.993 28.695 33.993 z M 61.305 33.993 c 1.211 0 2.195 0.985 2.195 2.195 s -0.984 2.195 -2.195 2.195 s -2.195 -0.984 -2.195 -2.195 S 60.094 33.993 61.305 33.993 z" style="stroke: none; stroke-width: 1; stroke-dasharray: none; stroke-linecap: butt; stroke-linejoin: miter; stroke-miterlimit: 10; fill: rgb(0,0,0); fill-rule: nonzero; opacity: 1;" transform=" matrix(1 0 0 1 0 0) " stroke-linecap="round" />
	<path d="M 45 78.146 l -0.487 -0.272 c -2.783 -1.553 -7.121 -5.204 -8.925 -7.514 c -3.846 -4.922 -4.624 -10.771 -1.849 -13.905 c 1.335 -1.508 3.208 -2.378 5.276 -2.449 C 41.1 53.912 43.21 54.701 45 56.187 c 1.789 -1.485 3.889 -2.274 5.985 -2.182 c 2.067 0.071 3.941 0.941 5.277 2.449 l 0 0 c 2.774 3.135 1.996 8.983 -1.851 13.906 c -1.804 2.309 -6.142 5.96 -8.925 7.513 L 45 78.146 z M 39.286 56 c -0.067 0 -0.135 0.001 -0.202 0.003 c -1.514 0.053 -2.88 0.684 -3.848 1.777 c -2.102 2.373 -1.273 7.252 1.928 11.349 c 1.545 1.977 5.272 5.152 7.836 6.713 c 2.564 -1.561 6.291 -4.736 7.836 -6.713 c 3.201 -4.097 4.03 -8.975 1.929 -11.349 c -0.968 -1.094 -2.335 -1.725 -3.849 -1.777 c -1.855 -0.057 -3.681 0.735 -5.215 2.244 L 45 58.937 l -0.701 -0.689 C 42.82 56.793 41.047 56 39.286 56 z" style="stroke: none; stroke-width: 1; stroke-dasharray: none; stroke-linecap: butt; stroke-linejoin: miter; stroke-miterlimit: 10; fill: rgb(0,0,0); fill-rule: nonzero; opacity: 1;" transform=" matrix(1 0 0 1 0 0) " stroke-linecap="round" />
</g>
</svg>